<svg width="24" height="24" viewBox="0 0 24 24" fill="none" xmlns="http://www.w3.org/2000/svg">
<path fill-rule="evenodd" clip-rule="evenodd" d="M16.3818 14H8.76382L7.12682 8H19.3818L16.3818 14ZM21.0828 6.948C20.7158 6.354 20.0798 6 19.3818 6H6.58182L5.96482 3.737C5.84582 3.302 5.45082 3 4.99982 3H2.99982C2.44682 3 1.99982 3.448 1.99982 4C1.99982 4.552 2.44682 5 2.99982 5H4.23582L7.03482 15.263C7.15382 15.698 7.54882 16 7.99982 16H16.9998C17.3788 16 17.7248 15.786 17.8948 15.447L21.1708 8.894C21.4838 8.269 21.4498 7.542 21.0828 6.948ZM7.50002 18C6.67202 18 6.00002 18.671 6.00002 19.5C6.00002 20.329 6.67202 21 7.50002 21C8.32802 21 9.00002 20.329 9.00002 19.5C9.00002 18.671 8.32802 18 7.50002 18ZM16 19.5C16 18.671 16.672 18 17.5 18C18.328 18 19 18.671 19 19.5C19 20.329 18.328 21 17.5 21C16.672 21 16 20.329 16 19.5Z" fill="#231F20"/>
<mask id="mask0" mask-type="alpha" maskUnits="userSpaceOnUse" x="1" y="3" width="21" height="18">
<path fill-rule="evenodd" clip-rule="evenodd" d="M16.3818 14H8.76382L7.12682 8H19.3818L16.3818 14ZM21.0828 6.948C20.7158 6.354 20.0798 6 19.3818 6H6.58182L5.96482 3.737C5.84582 3.302 5.45082 3 4.99982 3H2.99982C2.44682 3 1.99982 3.448 1.99982 4C1.99982 4.552 2.44682 5 2.99982 5H4.23582L7.03482 15.263C7.15382 15.698 7.54882 16 7.99982 16H16.9998C17.3788 16 17.7248 15.786 17.8948 15.447L21.1708 8.894C21.4838 8.269 21.4498 7.542 21.0828 6.948ZM7.50002 18C6.67202 18 6.00002 18.671 6.00002 19.5C6.00002 20.329 6.67202 21 7.50002 21C8.32802 21 9.00002 20.329 9.00002 19.5C9.00002 18.671 8.32802 18 7.50002 18ZM16 19.5C16 18.671 16.672 18 17.5 18C18.328 18 19 18.671 19 19.5C19 20.329 18.328 21 17.5 21C16.672 21 16 20.329 16 19.5Z" fill="white"/>
</mask>
<g mask="url(#mask0)">
<rect width="24" height="24" fill="#0D1C2E"/>
</g>
</svg>
